<svg id="visual" viewBox="0 0 900 600" width="900" height="600" xmlns="http://www.w3.org/2000/svg" xmlns:xlink="http://www.w3.org/1999/xlink" version="1.1"><path d="M755 600L674 600L674 533L755 533L755 467L728 467L728 400L602 400L602 333L566 333L566 267L782 267L782 200L692 200L692 133L728 133L728 67L629 67L629 0L900 0L900 67L900 67L900 133L900 133L900 200L900 200L900 267L900 267L900 333L900 333L900 400L900 400L900 467L900 467L900 533L900 533L900 600L900 600Z" fill="#f7770f"></path><path d="M683 600L602 600L602 533L683 533L683 467L665 467L665 400L512 400L512 333L467 333L467 267L611 267L611 200L575 200L575 133L647 133L647 67L557 67L557 0L630 0L630 67L729 67L729 133L693 133L693 200L783 200L783 267L567 267L567 333L603 333L603 400L729 400L729 467L756 467L756 533L675 533L675 600L756 600Z" fill="#ff8348"></path><path d="M566 600L476 600L476 533L584 533L584 467L593 467L593 400L449 400L449 333L404 333L404 267L503 267L503 200L530 200L530 133L602 133L602 67L431 67L431 0L558 0L558 67L648 67L648 133L576 133L576 200L612 200L612 267L468 267L468 333L513 333L513 400L666 400L666 467L684 467L684 533L603 533L603 600L684 600Z" fill="#ff926e"></path><path d="M224 600L278 600L278 533L206 533L206 467L188 467L188 400L242 400L242 333L278 333L278 267L206 267L206 200L323 200L323 133L170 133L170 67L188 67L188 0L432 0L432 67L603 67L603 133L531 133L531 200L504 200L504 267L405 267L405 333L450 333L450 400L594 400L594 467L585 467L585 533L477 533L477 600L567 600Z" fill="#ffa391"></path><path d="M134 600L152 600L152 533L107 533L107 467L107 467L107 400L134 400L134 333L152 333L152 267L143 267L143 200L179 200L179 133L125 133L125 67L125 67L125 0L189 0L189 67L171 67L171 133L324 133L324 200L207 200L207 267L279 267L279 333L243 333L243 400L189 400L189 467L207 467L207 533L279 533L279 600L225 600Z" fill="#feb6af"></path><path d="M0 600L0 600L0 533L0 533L0 467L0 467L0 400L0 400L0 333L0 333L0 267L0 267L0 200L0 200L0 133L0 133L0 67L0 67L0 0L126 0L126 67L126 67L126 133L180 133L180 200L144 200L144 267L153 267L153 333L135 333L135 400L108 400L108 467L108 467L108 533L153 533L153 600L135 600Z" fill="#f7caca"></path></svg>