<svg id="visual" viewBox="0 0 900 600" width="900" height="600" xmlns="http://www.w3.org/2000/svg" xmlns:xlink="http://www.w3.org/1999/xlink" version="1.1"><g stroke-width="1" stroke-linejoin="bevel"><path d="M528 296L587 273L538 166Z" fill="#e37f18" stroke="#e37f18"></path><path d="M587 273L632 183L538 166Z" fill="#d56605" stroke="#d56605"></path><path d="M561 67L482 93L538 166Z" fill="#de7712" stroke="#de7712"></path><path d="M538 166L403 162L528 296Z" fill="#f49f30" stroke="#f49f30"></path><path d="M482 93L403 162L538 166Z" fill="#f49f30" stroke="#f49f30"></path><path d="M639 406L668 323L587 273Z" fill="#f0972a" stroke="#f0972a"></path><path d="M587 273L704 230L632 183Z" fill="#d96f0c" stroke="#d96f0c"></path><path d="M632 183L561 67L538 166Z" fill="#d96f0c" stroke="#d96f0c"></path><path d="M668 323L704 230L587 273Z" fill="#eb8f24" stroke="#eb8f24"></path><path d="M632 183L717 125L561 67Z" fill="#f0972a" stroke="#f0972a"></path><path d="M403 162L368 277L528 296Z" fill="#f8a736" stroke="#f8a736"></path><path d="M528 296L639 406L587 273Z" fill="#f8a736" stroke="#f8a736"></path><path d="M406 399L494 406L528 296Z" fill="#f49f30" stroke="#f49f30"></path><path d="M494 406L639 406L528 296Z" fill="#fcaf3c" stroke="#fcaf3c"></path><path d="M837 279L806 195L704 230Z" fill="#d05e00" stroke="#d05e00"></path><path d="M432 0L412 67L482 93Z" fill="#d56605" stroke="#d56605"></path><path d="M482 93L412 67L403 162Z" fill="#f8a736" stroke="#f8a736"></path><path d="M270 173L310 305L368 277Z" fill="#fcaf3c" stroke="#fcaf3c"></path><path d="M704 230L717 125L632 183Z" fill="#fcaf3c" stroke="#fcaf3c"></path><path d="M368 277L406 399L528 296Z" fill="#f0972a" stroke="#f0972a"></path><path d="M587 0L521 0L561 67Z" fill="#e7871e" stroke="#e7871e"></path><path d="M561 67L521 0L482 93Z" fill="#d56605" stroke="#d56605"></path><path d="M700 0L587 0L561 67Z" fill="#eb8f24" stroke="#eb8f24"></path><path d="M270 173L368 277L403 162Z" fill="#fcaf3c" stroke="#fcaf3c"></path><path d="M368 277L310 305L406 399Z" fill="#d05e00" stroke="#d05e00"></path><path d="M293 0L313 116L412 67Z" fill="#eb8f24" stroke="#eb8f24"></path><path d="M412 67L313 116L403 162Z" fill="#d56605" stroke="#d56605"></path><path d="M521 0L432 0L482 93Z" fill="#e7871e" stroke="#e7871e"></path><path d="M629 485L689 437L639 406Z" fill="#de7712" stroke="#de7712"></path><path d="M639 406L689 437L668 323Z" fill="#de7712" stroke="#de7712"></path><path d="M704 230L778 138L717 125Z" fill="#d96f0c" stroke="#d96f0c"></path><path d="M629 485L639 406L494 406Z" fill="#d56605" stroke="#d56605"></path><path d="M806 195L778 138L704 230Z" fill="#e37f18" stroke="#e37f18"></path><path d="M717 125L700 0L561 67Z" fill="#de7712" stroke="#de7712"></path><path d="M502 510L629 485L494 406Z" fill="#e7871e" stroke="#e7871e"></path><path d="M762 385L704 230L668 323Z" fill="#d56605" stroke="#d56605"></path><path d="M729 508L762 385L689 437Z" fill="#f49f30" stroke="#f49f30"></path><path d="M689 437L762 385L668 323Z" fill="#d05e00" stroke="#d05e00"></path><path d="M313 116L270 173L403 162Z" fill="#d56605" stroke="#d56605"></path><path d="M406 399L502 510L494 406Z" fill="#e7871e" stroke="#e7871e"></path><path d="M364 467L502 510L406 399Z" fill="#d96f0c" stroke="#d96f0c"></path><path d="M772 0L700 0L717 125Z" fill="#f0972a" stroke="#f0972a"></path><path d="M271 383L364 467L406 399Z" fill="#fcaf3c" stroke="#fcaf3c"></path><path d="M762 385L837 279L704 230Z" fill="#f49f30" stroke="#f49f30"></path><path d="M213 273L271 383L310 305Z" fill="#d05e00" stroke="#d05e00"></path><path d="M310 305L271 383L406 399Z" fill="#d56605" stroke="#d56605"></path><path d="M270 173L213 273L310 305Z" fill="#f49f30" stroke="#f49f30"></path><path d="M900 86L772 0L778 138Z" fill="#f0972a" stroke="#f0972a"></path><path d="M778 138L772 0L717 125Z" fill="#d96f0c" stroke="#d96f0c"></path><path d="M900 184L778 138L806 195Z" fill="#e7871e" stroke="#e7871e"></path><path d="M432 0L293 0L412 67Z" fill="#d05e00" stroke="#d05e00"></path><path d="M313 116L189 103L270 173Z" fill="#f0972a" stroke="#f0972a"></path><path d="M270 173L160 191L213 273Z" fill="#f49f30" stroke="#f49f30"></path><path d="M629 485L729 508L689 437Z" fill="#f0972a" stroke="#f0972a"></path><path d="M900 399L900 296L837 279Z" fill="#d96f0c" stroke="#d96f0c"></path><path d="M626 600L729 508L629 485Z" fill="#fcaf3c" stroke="#fcaf3c"></path><path d="M213 273L235 399L271 383Z" fill="#e37f18" stroke="#e37f18"></path><path d="M271 383L266 475L364 467Z" fill="#f49f30" stroke="#f49f30"></path><path d="M235 399L266 475L271 383Z" fill="#d05e00" stroke="#d05e00"></path><path d="M430 600L502 600L502 510Z" fill="#f8a736" stroke="#f8a736"></path><path d="M900 296L900 184L837 279Z" fill="#f0972a" stroke="#f0972a"></path><path d="M837 279L900 184L806 195Z" fill="#fcaf3c" stroke="#fcaf3c"></path><path d="M900 399L837 279L762 385Z" fill="#e7871e" stroke="#e7871e"></path><path d="M430 600L502 510L364 467Z" fill="#e7871e" stroke="#e7871e"></path><path d="M502 510L626 600L629 485Z" fill="#f49f30" stroke="#f49f30"></path><path d="M238 0L189 103L313 116Z" fill="#e7871e" stroke="#e7871e"></path><path d="M293 0L238 0L313 116Z" fill="#e7871e" stroke="#e7871e"></path><path d="M189 103L160 191L270 173Z" fill="#f0972a" stroke="#f0972a"></path><path d="M213 273L126 332L235 399Z" fill="#d56605" stroke="#d56605"></path><path d="M502 600L626 600L502 510Z" fill="#eb8f24" stroke="#eb8f24"></path><path d="M787 600L839 462L729 508Z" fill="#de7712" stroke="#de7712"></path><path d="M729 508L839 462L762 385Z" fill="#eb8f24" stroke="#eb8f24"></path><path d="M265 600L430 600L364 467Z" fill="#f8a736" stroke="#f8a736"></path><path d="M900 184L900 86L778 138Z" fill="#d56605" stroke="#d56605"></path><path d="M839 462L900 399L762 385Z" fill="#f8a736" stroke="#f8a736"></path><path d="M160 191L126 233L213 273Z" fill="#e37f18" stroke="#e37f18"></path><path d="M235 399L199 475L266 475Z" fill="#e7871e" stroke="#e7871e"></path><path d="M0 181L126 233L160 191Z" fill="#d05e00" stroke="#d05e00"></path><path d="M139 66L160 191L189 103Z" fill="#e37f18" stroke="#e37f18"></path><path d="M626 600L724 600L729 508Z" fill="#f8a736" stroke="#f8a736"></path><path d="M839 462L900 493L900 399Z" fill="#d56605" stroke="#d56605"></path><path d="M104 412L199 475L235 399Z" fill="#d56605" stroke="#d56605"></path><path d="M266 475L265 600L364 467Z" fill="#f0972a" stroke="#f0972a"></path><path d="M126 233L126 332L213 273Z" fill="#f49f30" stroke="#f49f30"></path><path d="M900 86L900 0L772 0Z" fill="#f49f30" stroke="#f49f30"></path><path d="M238 0L139 66L189 103Z" fill="#de7712" stroke="#de7712"></path><path d="M724 600L787 600L729 508Z" fill="#d05e00" stroke="#d05e00"></path><path d="M787 600L900 493L839 462Z" fill="#e7871e" stroke="#e7871e"></path><path d="M199 475L265 600L266 475Z" fill="#f0972a" stroke="#f0972a"></path><path d="M126 332L104 412L235 399Z" fill="#f49f30" stroke="#f49f30"></path><path d="M199 475L193 600L265 600Z" fill="#f8a736" stroke="#f8a736"></path><path d="M0 376L104 412L126 332Z" fill="#eb8f24" stroke="#eb8f24"></path><path d="M0 268L126 332L126 233Z" fill="#eb8f24" stroke="#eb8f24"></path><path d="M104 412L135 492L199 475Z" fill="#eb8f24" stroke="#eb8f24"></path><path d="M238 0L106 0L139 66Z" fill="#d56605" stroke="#d56605"></path><path d="M0 181L0 268L126 233Z" fill="#f8a736" stroke="#f8a736"></path><path d="M135 492L193 600L199 475Z" fill="#fcaf3c" stroke="#fcaf3c"></path><path d="M787 600L900 600L900 493Z" fill="#f49f30" stroke="#f49f30"></path><path d="M104 412L0 475L135 492Z" fill="#e37f18" stroke="#e37f18"></path><path d="M135 492L78 600L193 600Z" fill="#fcaf3c" stroke="#fcaf3c"></path><path d="M0 181L160 191L0 136Z" fill="#f0972a" stroke="#f0972a"></path><path d="M0 136L160 191L139 66Z" fill="#f8a736" stroke="#f8a736"></path><path d="M0 0L0 136L139 66Z" fill="#eb8f24" stroke="#eb8f24"></path><path d="M0 268L0 376L126 332Z" fill="#e37f18" stroke="#e37f18"></path><path d="M106 0L0 0L139 66Z" fill="#eb8f24" stroke="#eb8f24"></path><path d="M0 475L78 600L135 492Z" fill="#e37f18" stroke="#e37f18"></path><path d="M0 376L0 475L104 412Z" fill="#f49f30" stroke="#f49f30"></path><path d="M0 475L0 600L78 600Z" fill="#f8a736" stroke="#f8a736"></path></g></svg>